<mxfile host="app.diagrams.net" modified="2023-05-02T21:21:11.770Z" agent="Mozilla/5.0 (Windows NT 10.0; Win64; x64) AppleWebKit/537.36 (KHTML, like Gecko) Chrome/112.0.0.0 Safari/537.36" etag="PS9sWoI_anIZww2oIunr" version="21.2.3" type="device">
  <diagram name="Page-1" id="7tpM4QPY6g5112ckKzI2">
    <mxGraphModel dx="1290" dy="587" grid="1" gridSize="10" guides="1" tooltips="1" connect="1" arrows="1" fold="1" page="1" pageScale="1" pageWidth="850" pageHeight="1100" math="0" shadow="0">
      <root>
        <mxCell id="0" />
        <mxCell id="1" parent="0" />
        <mxCell id="QWQt8G3QHn2Kw6NiIijE-1" style="rounded=0;orthogonalLoop=1;jettySize=auto;html=1;exitX=0.5;exitY=1;exitDx=0;exitDy=0;entryX=0.5;entryY=0;entryDx=0;entryDy=0;" edge="1" parent="1" source="QWQt8G3QHn2Kw6NiIijE-3" target="QWQt8G3QHn2Kw6NiIijE-7">
          <mxGeometry relative="1" as="geometry" />
        </mxCell>
        <mxCell id="QWQt8G3QHn2Kw6NiIijE-2" style="rounded=0;orthogonalLoop=1;jettySize=auto;html=1;exitX=0.5;exitY=1;exitDx=0;exitDy=0;entryX=0.5;entryY=0;entryDx=0;entryDy=0;" edge="1" parent="1" source="QWQt8G3QHn2Kw6NiIijE-3" target="QWQt8G3QHn2Kw6NiIijE-6">
          <mxGeometry relative="1" as="geometry" />
        </mxCell>
        <mxCell id="QWQt8G3QHn2Kw6NiIijE-3" value="S" style="ellipse;whiteSpace=wrap;html=1;" vertex="1" parent="1">
          <mxGeometry x="360" y="40" width="120" height="80" as="geometry" />
        </mxCell>
        <mxCell id="QWQt8G3QHn2Kw6NiIijE-4" value="" style="rounded=0;orthogonalLoop=1;jettySize=auto;html=1;" edge="1" parent="1" source="QWQt8G3QHn2Kw6NiIijE-6" target="QWQt8G3QHn2Kw6NiIijE-8">
          <mxGeometry relative="1" as="geometry" />
        </mxCell>
        <mxCell id="QWQt8G3QHn2Kw6NiIijE-5" style="rounded=0;orthogonalLoop=1;jettySize=auto;html=1;exitX=0.5;exitY=1;exitDx=0;exitDy=0;entryX=0.5;entryY=0;entryDx=0;entryDy=0;" edge="1" parent="1" source="QWQt8G3QHn2Kw6NiIijE-6" target="QWQt8G3QHn2Kw6NiIijE-10">
          <mxGeometry relative="1" as="geometry" />
        </mxCell>
        <mxCell id="QWQt8G3QHn2Kw6NiIijE-6" value="A" style="ellipse;whiteSpace=wrap;html=1;" vertex="1" parent="1">
          <mxGeometry x="280" y="160" width="120" height="80" as="geometry" />
        </mxCell>
        <mxCell id="QWQt8G3QHn2Kw6NiIijE-7" value="01" style="ellipse;whiteSpace=wrap;html=1;" vertex="1" parent="1">
          <mxGeometry x="440" y="160" width="120" height="80" as="geometry" />
        </mxCell>
        <mxCell id="QWQt8G3QHn2Kw6NiIijE-8" value="1" style="ellipse;whiteSpace=wrap;html=1;" vertex="1" parent="1">
          <mxGeometry x="280" y="280" width="120" height="80" as="geometry" />
        </mxCell>
        <mxCell id="QWQt8G3QHn2Kw6NiIijE-9" value="" style="edgeStyle=orthogonalEdgeStyle;rounded=0;orthogonalLoop=1;jettySize=auto;html=1;" edge="1" parent="1" source="QWQt8G3QHn2Kw6NiIijE-10" target="QWQt8G3QHn2Kw6NiIijE-11">
          <mxGeometry relative="1" as="geometry" />
        </mxCell>
        <mxCell id="QWQt8G3QHn2Kw6NiIijE-10" value="A" style="ellipse;whiteSpace=wrap;html=1;" vertex="1" parent="1">
          <mxGeometry x="120" y="280" width="120" height="80" as="geometry" />
        </mxCell>
        <mxCell id="QWQt8G3QHn2Kw6NiIijE-11" value="1" style="ellipse;whiteSpace=wrap;html=1;" vertex="1" parent="1">
          <mxGeometry x="120" y="400" width="120" height="80" as="geometry" />
        </mxCell>
      </root>
    </mxGraphModel>
  </diagram>
</mxfile>
